<?xml version="1.0" encoding="utf-8"?>
<!-- Generator: Adobe Illustrator 15.1.0, SVG Export Plug-In  -->
<!DOCTYPE svg PUBLIC "-//W3C//DTD SVG 1.1//EN" "http://www.w3.org/Graphics/SVG/1.1/DTD/svg11.dtd" [
	<!ENTITY ns_flows "http://ns.adobe.com/Flows/1.0/">
]>
<svg version="1.1"
	 xmlns="http://www.w3.org/2000/svg" xmlns:xlink="http://www.w3.org/1999/xlink" xmlns:a="http://ns.adobe.com/AdobeSVGViewerExtensions/3.0/"
	 x="0px" y="0px" width="194px" height="22px" viewBox="-0.588 -0.314 194 22"
	 overflow="visible" enable-background="new -0.588 -0.314 194 22" xml:space="preserve">
<defs>
</defs>
<path d="M32.003,8.301h-8.301l-0.973,4.15h8.333l-1.945,8.333H16.634l1.913-8.333h-4.118l-1.946,8.333H0L4.832,0h12.483
	l-1.913,8.301h4.118L21.465,0h12.483L32.003,8.301z"/>
<path d="M64.593,20.784H35.475L40.307,0h29.117L64.593,20.784z M51.817,4.15l-2.886,12.483h4.15L55.968,4.15H51.817z"/>
<path d="M116.994,20.784h-12.483l3.858-16.634h-4.15l-3.858,16.634H87.877L91.735,4.15h-4.15l-3.858,16.634H71.243L76.074,0h45.751
	L116.994,20.784z"/>
<path d="M155.615,8.333h-4.15l-0.973,4.183h4.184l-1.946,8.333h-29.117l4.831-20.785h29.118L155.615,8.333z M138.041,12.516
	l-0.973,4.15h4.15l0.94-4.15H138.041z M139.954,4.215l-0.94,4.118h4.118l0.973-4.118H139.954z"/>
<path d="M188.335,20.784h-29.117L164.049,0h29.118L188.335,20.784z M175.56,4.15l-2.886,12.483h4.15L179.71,4.15H175.56z"/>
</svg>
